<?xml version="1.0" encoding="utf-8"?>
<!-- Generator: Adobe Illustrator 16.0.3, SVG Export Plug-In . SVG Version: 6.00 Build 0)  -->
<!DOCTYPE svg PUBLIC "-//W3C//DTD SVG 1.0//EN" "http://www.w3.org/TR/2001/REC-SVG-20010904/DTD/svg10.dtd">
<svg version="1.0" id="Layer_1" xmlns="http://www.w3.org/2000/svg" xmlns:xlink="http://www.w3.org/1999/xlink" x="0px" y="0px"
	 width="50px" height="50px" viewBox="0 0 50 50" style="enable-background:new 0 0 50 50;" xml:space="preserve">
<style type="text/css">
<![CDATA[
	.st0{fill:url(#XMLID_4_);}
	.st1{fill:url(#SVGID_4_);stroke:url(#SVGID_5_);stroke-width:0.5;stroke-miterlimit:10;}
	.st2{filter:url(#Adobe_OpacityMaskFilter);}
	.st3{mask:url(#SVGID_1_);}
	.st4{fill:url(#SVGID_2_);stroke:url(#SVGID_3_);stroke-width:0.75;stroke-miterlimit:10;}
]]>
</style>
<defs>
	<filter id="Adobe_OpacityMaskFilter" filterUnits="userSpaceOnUse" x="1.514" y="1.069" width="47.861" height="47.861">
		<feFlood  style="flood-color:white;flood-opacity:1" result="back"/>
		<feBlend  in="SourceGraphic" in2="back" mode="normal"/>
	</filter>
</defs>
<mask maskUnits="userSpaceOnUse" x="1.514" y="1.069" width="47.861" height="47.861" id="SVGID_1_">
	<g class="st2">
	</g>
</mask>
<g class="st3">
	<g>
		<g>
			<radialGradient id="XMLID_4_" cx="25.4434" cy="24.999" r="22.3145" gradientUnits="userSpaceOnUse">
				<stop  offset="0" style="stop-color:#303032"/>
				<stop  offset="1" style="stop-color:#000918"/>
			</radialGradient>
			<path id="XMLID_1_" class="st0" d="M25.445,2.685L25.445,2.685C13.172,2.685,3.129,12.727,3.129,25l0,0
				c0,12.273,10.042,22.313,22.316,22.313l0,0c12.272,0,22.313-10.04,22.313-22.313l0,0C47.758,12.727,37.718,2.685,25.445,2.685z"
				/>
			<linearGradient id="SVGID_2_" gradientUnits="userSpaceOnUse" x1="8.7964" y1="8.3521" x2="42.0939" y2="41.6496">
				<stop  offset="0" style="stop-color:#B07515"/>
				<stop  offset="0.0943" style="stop-color:#E1BA60"/>
				<stop  offset="0.1398" style="stop-color:#F5D77F"/>
				<stop  offset="0.2581" style="stop-color:#FFFFD7"/>
				<stop  offset="0.3602" style="stop-color:#F5D77F"/>
				<stop  offset="0.4892" style="stop-color:#B07515"/>
				<stop  offset="0.5727" style="stop-color:#E1BA60"/>
				<stop  offset="0.6129" style="stop-color:#F5D77F"/>
				<stop  offset="0.7366" style="stop-color:#FFFFD7"/>
				<stop  offset="0.8387" style="stop-color:#F5D77F"/>
				<stop  offset="1" style="stop-color:#B07515"/>
			</linearGradient>
			<linearGradient id="SVGID_3_" gradientUnits="userSpaceOnUse" x1="8.5313" y1="41.9141" x2="42.359" y2="8.0864">
				<stop  offset="0" style="stop-color:#B07515"/>
				<stop  offset="0.0943" style="stop-color:#E1BA60"/>
				<stop  offset="0.1398" style="stop-color:#F5D77F"/>
				<stop  offset="0.2581" style="stop-color:#FFFFD7"/>
				<stop  offset="0.3602" style="stop-color:#F5D77F"/>
				<stop  offset="0.4892" style="stop-color:#B07515"/>
				<stop  offset="0.5727" style="stop-color:#E1BA60"/>
				<stop  offset="0.6129" style="stop-color:#F5D77F"/>
				<stop  offset="0.7366" style="stop-color:#FFFFD7"/>
				<stop  offset="0.8387" style="stop-color:#F5D77F"/>
				<stop  offset="1" style="stop-color:#B07515"/>
			</linearGradient>
			<path class="st4" d="M25.445,48.556C12.456,48.556,1.889,37.989,1.889,25c0-12.988,10.567-23.556,23.557-23.556S49,12.012,49,25
				C49,37.989,38.435,48.556,25.445,48.556z M25.445,3.925C13.824,3.925,4.369,13.379,4.369,25c0,11.62,9.455,21.075,21.076,21.075
				c11.62,0,21.074-9.455,21.074-21.075C46.52,13.379,37.065,3.925,25.445,3.925z"/>
		</g>
		<linearGradient id="SVGID_4_" gradientUnits="userSpaceOnUse" x1="16.2183" y1="33.6855" x2="33.4319" y2="16.4719">
			<stop  offset="0" style="stop-color:#B07515"/>
			<stop  offset="0.1625" style="stop-color:#E1BA60"/>
			<stop  offset="0.2409" style="stop-color:#F5D77F"/>
			<stop  offset="0.5019" style="stop-color:#FFFFD7"/>
			<stop  offset="0.7563" style="stop-color:#F5D77F"/>
			<stop  offset="1" style="stop-color:#B07515"/>
		</linearGradient>
		<linearGradient id="SVGID_5_" gradientUnits="userSpaceOnUse" x1="17.5156" y1="25.3608" x2="30.2197" y2="25.3608">
			<stop  offset="0" style="stop-color:#B07515"/>
			<stop  offset="0.0943" style="stop-color:#E1BA60"/>
			<stop  offset="0.1398" style="stop-color:#F5D77F"/>
			<stop  offset="0.2581" style="stop-color:#FFFFD7"/>
			<stop  offset="0.3602" style="stop-color:#F5D77F"/>
			<stop  offset="0.4892" style="stop-color:#B07515"/>
			<stop  offset="0.5727" style="stop-color:#E1BA60"/>
			<stop  offset="0.6129" style="stop-color:#F5D77F"/>
			<stop  offset="0.7366" style="stop-color:#FFFFD7"/>
			<stop  offset="0.8387" style="stop-color:#F5D77F"/>
			<stop  offset="1" style="stop-color:#B07515"/>
		</linearGradient>
		<path class="st1" d="M29.468,26.009h-3.671v11.813h-5.443V26.009h-2.588v-4.625h2.588v-2.993c0-2.14,1.017-5.49,5.49-5.49
			l4.032,0.016v4.489H26.95c-0.479,0-1.153,0.24-1.153,1.261v2.722h4.146L29.468,26.009z M30.103,26.148"/>
	</g>
</g>
</svg>
