<?xml version="1.0" encoding="utf-8"?>
<!-- Generator: Adobe Illustrator 16.0.3, SVG Export Plug-In . SVG Version: 6.00 Build 0)  -->
<!DOCTYPE svg PUBLIC "-//W3C//DTD SVG 1.0//EN" "http://www.w3.org/TR/2001/REC-SVG-20010904/DTD/svg10.dtd">
<svg version="1.0" id="Layer_1" xmlns="http://www.w3.org/2000/svg" xmlns:xlink="http://www.w3.org/1999/xlink" x="0px" y="0px"
	 width="50px" height="50px" viewBox="0 0 50 50" style="enable-background:new 0 0 50 50;" xml:space="preserve">
<style type="text/css">
<![CDATA[
	.st0{fill:url(#SVGID_4_);stroke:url(#SVGID_5_);stroke-width:0.5;stroke-miterlimit:10;}
	.st1{fill:url(#SVGID_8_);stroke:url(#SVGID_9_);stroke-width:0.5;stroke-miterlimit:10;}
	.st2{fill:url(#SVGID_1_);}
	.st3{fill:url(#SVGID_6_);stroke:url(#SVGID_7_);stroke-width:0.5;stroke-miterlimit:10;}
	.st4{fill:url(#SVGID_2_);stroke:url(#SVGID_3_);stroke-width:0.75;stroke-miterlimit:10;}
]]>
</style>
<g>
	<g>
		<g>
			<radialGradient id="SVGID_1_" cx="25.458" cy="24.541" r="22.3018" fx="34.3624" fy="11.4658" gradientUnits="userSpaceOnUse">
				<stop  offset="0" style="stop-color:#303032"/>
				<stop  offset="1" style="stop-color:#000918"/>
			</radialGradient>
			<path class="st2" d="M25.459,2.24L25.459,2.24c-12.267,0-22.303,10.036-22.303,22.302l0,0c0,12.266,10.037,22.301,22.303,22.301
				l0,0c12.266,0,22.301-10.035,22.301-22.301l0,0C47.76,12.275,37.725,2.24,25.459,2.24z"/>
			<linearGradient id="SVGID_2_" gradientUnits="userSpaceOnUse" x1="1.917" y1="24.542" x2="49" y2="24.542">
				<stop  offset="0" style="stop-color:#B07515"/>
				<stop  offset="0.0943" style="stop-color:#E1BA60"/>
				<stop  offset="0.1398" style="stop-color:#F5D77F"/>
				<stop  offset="0.2581" style="stop-color:#FFFFD7"/>
				<stop  offset="0.3602" style="stop-color:#F5D77F"/>
				<stop  offset="0.4892" style="stop-color:#B07515"/>
				<stop  offset="0.5727" style="stop-color:#E1BA60"/>
				<stop  offset="0.6129" style="stop-color:#F5D77F"/>
				<stop  offset="0.7366" style="stop-color:#FFFFD7"/>
				<stop  offset="0.8387" style="stop-color:#F5D77F"/>
				<stop  offset="1" style="stop-color:#B07515"/>
			</linearGradient>
			<linearGradient id="SVGID_3_" gradientUnits="userSpaceOnUse" x1="8.5547" y1="41.4463" x2="42.3629" y2="7.6381">
				<stop  offset="0" style="stop-color:#B07515"/>
				<stop  offset="0.0943" style="stop-color:#E1BA60"/>
				<stop  offset="0.1398" style="stop-color:#F5D77F"/>
				<stop  offset="0.2581" style="stop-color:#FFFFD7"/>
				<stop  offset="0.3602" style="stop-color:#F5D77F"/>
				<stop  offset="0.4892" style="stop-color:#B07515"/>
				<stop  offset="0.5727" style="stop-color:#E1BA60"/>
				<stop  offset="0.6129" style="stop-color:#F5D77F"/>
				<stop  offset="0.7366" style="stop-color:#FFFFD7"/>
				<stop  offset="0.8387" style="stop-color:#F5D77F"/>
				<stop  offset="1" style="stop-color:#B07515"/>
			</linearGradient>
			<path class="st4" d="M25.459,48.084c-12.981,0-23.542-10.561-23.542-23.542C1.917,11.561,12.478,1,25.459,1
				C38.44,1,49,11.561,49,24.542C49,37.523,38.44,48.084,25.459,48.084z M25.459,3.479c-11.614,0-21.063,9.449-21.063,21.063
				c0,11.613,9.449,21.063,21.063,21.063c11.613,0,21.062-9.449,21.062-21.063C46.521,12.928,37.072,3.479,25.459,3.479z"/>
		</g>
	</g>
	<g>
		<linearGradient id="SVGID_4_" gradientUnits="userSpaceOnUse" x1="14.9229" y1="35.0781" x2="35.9947" y2="14.0063">
			<stop  offset="0" style="stop-color:#B07515"/>
			<stop  offset="0.1625" style="stop-color:#E1BA60"/>
			<stop  offset="0.2409" style="stop-color:#F5D77F"/>
			<stop  offset="0.5019" style="stop-color:#FFFFD7"/>
			<stop  offset="0.7563" style="stop-color:#F5D77F"/>
			<stop  offset="1" style="stop-color:#B07515"/>
		</linearGradient>
		<linearGradient id="SVGID_5_" gradientUnits="userSpaceOnUse" x1="12.6436" y1="24.5415" x2="38.2734" y2="24.5415">
			<stop  offset="0" style="stop-color:#B07515"/>
			<stop  offset="0.0943" style="stop-color:#E1BA60"/>
			<stop  offset="0.1398" style="stop-color:#F5D77F"/>
			<stop  offset="0.2581" style="stop-color:#FFFFD7"/>
			<stop  offset="0.3602" style="stop-color:#F5D77F"/>
			<stop  offset="0.4892" style="stop-color:#B07515"/>
			<stop  offset="0.5727" style="stop-color:#E1BA60"/>
			<stop  offset="0.6129" style="stop-color:#F5D77F"/>
			<stop  offset="0.7366" style="stop-color:#FFFFD7"/>
			<stop  offset="0.8387" style="stop-color:#F5D77F"/>
			<stop  offset="1" style="stop-color:#B07515"/>
		</linearGradient>
		<path class="st0" d="M31.096,11.977H19.821c-3.826,0-6.927,3.101-6.927,6.927v11.275c0,3.826,3.101,6.928,6.927,6.928h11.275
			c3.826,0,6.928-3.102,6.928-6.928V18.904C38.023,15.078,34.922,11.977,31.096,11.977z M35.994,30.15
			c0,2.721-2.206,4.927-4.927,4.927H19.849c-2.72,0-4.926-2.206-4.926-4.927V18.932c0-2.72,2.206-4.925,4.926-4.925h11.218
			c2.721,0,4.927,2.205,4.927,4.925V30.15z"/>
		<linearGradient id="SVGID_6_" gradientUnits="userSpaceOnUse" x1="20.7754" y1="29.2256" x2="30.1414" y2="19.8595">
			<stop  offset="0" style="stop-color:#B07515"/>
			<stop  offset="0.1625" style="stop-color:#E1BA60"/>
			<stop  offset="0.2409" style="stop-color:#F5D77F"/>
			<stop  offset="0.5019" style="stop-color:#FFFFD7"/>
			<stop  offset="0.7563" style="stop-color:#F5D77F"/>
			<stop  offset="1" style="stop-color:#B07515"/>
		</linearGradient>
		<linearGradient id="SVGID_7_" gradientUnits="userSpaceOnUse" x1="18.5859" y1="24.542" x2="32.3311" y2="24.542">
			<stop  offset="0" style="stop-color:#B07515"/>
			<stop  offset="0.0943" style="stop-color:#E1BA60"/>
			<stop  offset="0.1398" style="stop-color:#F5D77F"/>
			<stop  offset="0.2581" style="stop-color:#FFFFD7"/>
			<stop  offset="0.3602" style="stop-color:#F5D77F"/>
			<stop  offset="0.4892" style="stop-color:#B07515"/>
			<stop  offset="0.5727" style="stop-color:#E1BA60"/>
			<stop  offset="0.6129" style="stop-color:#F5D77F"/>
			<stop  offset="0.7366" style="stop-color:#FFFFD7"/>
			<stop  offset="0.8387" style="stop-color:#F5D77F"/>
			<stop  offset="1" style="stop-color:#B07515"/>
		</linearGradient>
		<path class="st3" d="M25.458,17.919c-3.658,0-6.622,2.965-6.622,6.623c0,3.657,2.964,6.623,6.622,6.623
			c3.658,0,6.623-2.966,6.623-6.623C32.081,20.884,29.116,17.919,25.458,17.919z M25.458,28.861c-2.385,0-4.319-1.935-4.319-4.319
			c0-2.386,1.934-4.32,4.319-4.32c2.386,0,4.32,1.934,4.32,4.32C29.778,26.927,27.844,28.861,25.458,28.861z"/>
		<linearGradient id="SVGID_8_" gradientUnits="userSpaceOnUse" x1="31.2568" y1="18.75" x2="33.3577" y2="16.6491">
			<stop  offset="0" style="stop-color:#B07515"/>
			<stop  offset="0.1625" style="stop-color:#E1BA60"/>
			<stop  offset="0.2409" style="stop-color:#F5D77F"/>
			<stop  offset="0.5019" style="stop-color:#FFFFD7"/>
			<stop  offset="0.7563" style="stop-color:#F5D77F"/>
			<stop  offset="1" style="stop-color:#B07515"/>
		</linearGradient>
		<linearGradient id="SVGID_9_" gradientUnits="userSpaceOnUse" x1="30.5703" y1="17.6987" x2="34.042" y2="17.6987">
			<stop  offset="0" style="stop-color:#B07515"/>
			<stop  offset="0.0943" style="stop-color:#E1BA60"/>
			<stop  offset="0.1398" style="stop-color:#F5D77F"/>
			<stop  offset="0.2581" style="stop-color:#FFFFD7"/>
			<stop  offset="0.3602" style="stop-color:#F5D77F"/>
			<stop  offset="0.4892" style="stop-color:#B07515"/>
			<stop  offset="0.5727" style="stop-color:#E1BA60"/>
			<stop  offset="0.6129" style="stop-color:#F5D77F"/>
			<stop  offset="0.7366" style="stop-color:#FFFFD7"/>
			<stop  offset="0.8387" style="stop-color:#F5D77F"/>
			<stop  offset="1" style="stop-color:#B07515"/>
		</linearGradient>
		<circle class="st1" cx="32.306" cy="17.699" r="1.486"/>
	</g>
</g>
</svg>
