<?xml version="1.0" encoding="utf-8"?>
<!-- Generator: Adobe Illustrator 16.0.3, SVG Export Plug-In . SVG Version: 6.00 Build 0)  -->
<!DOCTYPE svg PUBLIC "-//W3C//DTD SVG 1.1//EN" "http://www.w3.org/Graphics/SVG/1.1/DTD/svg11.dtd">
<svg version="1.1" id="Layer_1" xmlns="http://www.w3.org/2000/svg" xmlns:xlink="http://www.w3.org/1999/xlink" x="0px" y="0px"
	 width="197.389px" height="14.613px" viewBox="0 0 197.389 14.613" enable-background="new 0 0 197.389 14.613"
	 xml:space="preserve">
<g>
	<g>
		<g>
			<g>
				<g>
					<g>
						<g>
							
								<linearGradient id="SVGID_1_" gradientUnits="userSpaceOnUse" x1="272.0393" y1="-500.9724" x2="443.8457" y2="-226.7431" gradientTransform="matrix(1 0 0 -1 -296 -265.3872)">
								<stop  offset="0" style="stop-color:#B07515"/>
								<stop  offset="0.1625" style="stop-color:#E1BA60"/>
								<stop  offset="0.2409" style="stop-color:#F5D77F"/>
								<stop  offset="0.5019" style="stop-color:#FFFFD7"/>
								<stop  offset="0.7563" style="stop-color:#F5D77F"/>
								<stop  offset="1" style="stop-color:#B07515"/>
							</linearGradient>
							<path fill="url(#SVGID_1_)" d="M99.067,1.997c1.86-1.581,5.41-1.331,8.044-0.469c5.416,1.771,10.398,4.775,15.766,6.698
								c2.141,0.768,4.498,1.168,6.57-0.002c1.43-0.808,2.668-2.272,2.706-3.98c0.038-1.63-1.103-2.873-2.533-3.477
								c-1.912-0.807-3.91-0.345-5.747,0.438c-2.58,1.103-5.056,2.499-7.552,3.772c-1.257,0.643-2.514,1.284-3.77,1.925
								c-1.428,0.729-3.015,1.838-4.583,2.206c-1.183,0.276-3.297-0.188-2.326-1.996c0.527-0.982,1.623-1.255,2.676-0.99
								c1.508,0.38,2.889,1.397,4.232,2.138c2.449,1.352,4.922,2.661,7.491,3.767c4.813,2.069,10.081,3.389,15.273,2.035
								c3.979-1.036,8.138-4.029,7.793-8.627c-0.297-3.936-5.133-6.989-8.225-3.669c-2.609,2.802,0.798,7.229,4.004,5.821
								c0.48-0.212-1.794,0.931-3.694-1.47c-1.009-1.274-0.77-2.923,0.327-3.993c2.126-2.071,5.267-0.808,6.36,1.661
								c1.114,2.519-0.188,5.411-2.193,7.06c-1.972,1.625-4.569,2.299-7.079,2.393c-5.417,0.205-10.479-1.725-15.263-4.063
								c-2.259-1.104-4.503-2.263-6.831-3.213c-1.474-0.602-3.393-1.102-4.784-0.03c-0.938,0.722-1.451,2.081-0.656,3.101
								c0.943,1.214,2.644,0.996,3.887,0.463c4.835-2.066,9.444-4.824,14.142-7.193c2.151-1.085,5.105-2.243,7.216-0.427
								c2.679,2.307-0.229,5.672-2.985,5.812c-2.723,0.136-5.249-1.142-7.683-2.18c-2.419-1.032-4.833-2.08-7.257-3.101
								c-4.147-1.747-9.241-3.845-13.442-1.021c-2.729,1.834-3.564,5.475-0.562,8.159C98.628,9.753,94.412,5.952,99.067,1.997z"/>
						</g>
						<g>
							
								<linearGradient id="SVGID_2_" gradientUnits="userSpaceOnUse" x1="241.0803" y1="-481.5618" x2="412.8799" y2="-207.3432" gradientTransform="matrix(1 0 0 -1 -296 -265.3872)">
								<stop  offset="0" style="stop-color:#B07515"/>
								<stop  offset="0.1625" style="stop-color:#E1BA60"/>
								<stop  offset="0.2409" style="stop-color:#F5D77F"/>
								<stop  offset="0.5019" style="stop-color:#FFFFD7"/>
								<stop  offset="0.7563" style="stop-color:#F5D77F"/>
								<stop  offset="1" style="stop-color:#B07515"/>
							</linearGradient>
							<path fill="url(#SVGID_2_)" d="M97.711,1.997c-1.86-1.581-5.41-1.331-8.043-0.469C84.251,3.3,79.269,6.303,73.903,8.226
								c-2.141,0.768-4.499,1.168-6.57-0.002c-1.43-0.808-2.669-2.272-2.708-3.98c-0.037-1.63,1.104-2.873,2.535-3.477
								c1.91-0.807,3.908-0.345,5.748,0.438c2.578,1.103,5.054,2.499,7.55,3.772c1.257,0.643,2.513,1.284,3.77,1.925
								c1.427,0.729,3.015,1.838,4.583,2.206c1.183,0.276,3.297-0.188,2.326-1.996c-0.526-0.982-1.623-1.255-2.676-0.99
								c-1.508,0.38-2.889,1.397-4.233,2.138c-2.448,1.352-4.921,2.661-7.492,3.767c-4.813,2.069-10.078,3.389-15.271,2.035
								c-3.981-1.036-8.139-4.029-7.793-8.627c0.295-3.936,5.132-6.989,8.223-3.669c2.61,2.802-0.798,7.229-4.004,5.821
								c-0.479-0.212,1.795,0.931,3.695-1.47c1.009-1.274,0.769-2.923-0.329-3.993c-2.124-2.071-5.264-0.808-6.357,1.661
								c-1.115,2.519,0.188,5.411,2.192,7.06c1.973,1.625,4.571,2.299,7.08,2.393c5.417,0.205,10.478-1.725,15.264-4.063
								c2.258-1.104,4.501-2.263,6.829-3.213c1.475-0.602,3.395-1.102,4.785-0.03c0.937,0.722,1.451,2.081,0.657,3.101
								c-0.945,1.214-2.646,0.996-3.888,0.463c-4.836-2.066-9.445-4.824-14.142-7.193c-2.152-1.085-5.106-2.243-7.217-0.427
								c-2.68,2.307,0.229,5.672,2.986,5.812c2.722,0.136,5.248-1.142,7.682-2.18c2.419-1.032,4.833-2.08,7.258-3.101
								c4.147-1.747,9.241-3.845,13.443-1.021c2.728,1.834,3.563,5.475,0.562,8.159C98.15,9.753,102.366,5.952,97.711,1.997z"/>
						</g>
					</g>
				</g>
			</g>
			
				<linearGradient id="SVGID_3_" gradientUnits="userSpaceOnUse" x1="306.9778" y1="-522.8391" x2="478.7735" y2="-248.6268" gradientTransform="matrix(1 0 0 -1 -296 -265.3872)">
				<stop  offset="0" style="stop-color:#B07515"/>
				<stop  offset="0.1625" style="stop-color:#E1BA60"/>
				<stop  offset="0.2409" style="stop-color:#F5D77F"/>
				<stop  offset="0.5019" style="stop-color:#FFFFD7"/>
				<stop  offset="0.7563" style="stop-color:#F5D77F"/>
				<stop  offset="1" style="stop-color:#B07515"/>
			</linearGradient>
			<polygon fill="url(#SVGID_3_)" points="131.22,13.773 195.778,14.235 131.218,14.599 			"/>
			
				<linearGradient id="SVGID_4_" gradientUnits="userSpaceOnUse" x1="213.636" y1="-464.3914" x2="385.4495" y2="-190.1506" gradientTransform="matrix(1 0 0 -1 -296 -265.3872)">
				<stop  offset="0" style="stop-color:#B07515"/>
				<stop  offset="0.1625" style="stop-color:#E1BA60"/>
				<stop  offset="0.2409" style="stop-color:#F5D77F"/>
				<stop  offset="0.5019" style="stop-color:#FFFFD7"/>
				<stop  offset="0.7563" style="stop-color:#F5D77F"/>
				<stop  offset="1" style="stop-color:#B07515"/>
			</linearGradient>
			<polygon fill="url(#SVGID_4_)" points="65.56,14.599 1,14.235 65.56,13.773 			"/>
		</g>
	</g>
</g>
<g>
	<linearGradient id="SVGID_5_" gradientUnits="userSpaceOnUse" x1="-30.7341" y1="-27.3845" x2="13.592" y2="-27.3845">
		<stop  offset="0" style="stop-color:#D36E00"/>
		<stop  offset="0.1879" style="stop-color:#A0711C"/>
		<stop  offset="0.4848" style="stop-color:#F9BF00"/>
		<stop  offset="0.5758" style="stop-color:#FFC400"/>
		<stop  offset="0.7091" style="stop-color:#FFFFFF"/>
		<stop  offset="0.7656" style="stop-color:#E0C890"/>
		<stop  offset="0.8144" style="stop-color:#C89C36"/>
		<stop  offset="0.8364" style="stop-color:#BE8B13"/>
		<stop  offset="1" style="stop-color:#754C29"/>
	</linearGradient>
	<rect x="-30.734" y="-46.831" fill="url(#SVGID_5_)" width="44.326" height="38.893"/>
</g>
</svg>
