<?xml version="1.0" encoding="utf-8"?>
<!-- Generator: Adobe Illustrator 16.0.3, SVG Export Plug-In . SVG Version: 6.00 Build 0)  -->
<!DOCTYPE svg PUBLIC "-//W3C//DTD SVG 1.0//EN" "http://www.w3.org/TR/2001/REC-SVG-20010904/DTD/svg10.dtd">
<svg version="1.0" id="Layer_1" xmlns="http://www.w3.org/2000/svg" xmlns:xlink="http://www.w3.org/1999/xlink" x="0px" y="0px"
	 width="197.389px" height="14.613px" viewBox="0 0 197.389 14.613" style="enable-background:new 0 0 197.389 14.613;"
	 xml:space="preserve">
<style type="text/css">
<![CDATA[
	.st0{fill:url(#SVGID_1_);}
	.st1{fill:url(#SVGID_2_);}
	.st2{fill:url(#SVGID_3_);}
	.st3{fill:url(#SVGID_4_);}
]]>
</style>
<g>
	<g>
		<g>
			<g>
				<g>
					<g>
						<g>
							<linearGradient id="SVGID_1_" gradientUnits="userSpaceOnUse" x1="-23.96" y1="235.5835" x2="147.8464" y2="-38.6458">
								<stop  offset="0" style="stop-color:#281809"/>
								<stop  offset="2.459393e-004" style="stop-color:#2E1B0B"/>
								<stop  offset="0.0015" style="stop-color:#492B13"/>
								<stop  offset="0.003" style="stop-color:#5F3719"/>
								<stop  offset="0.0047" style="stop-color:#70411E"/>
								<stop  offset="0.0069" style="stop-color:#7B4821"/>
								<stop  offset="0.0099" style="stop-color:#824C23"/>
								<stop  offset="0.0182" style="stop-color:#844D24"/>
								<stop  offset="0.0364" style="stop-color:#F7E68A"/>
								<stop  offset="0.0727" style="stop-color:#8E5B22"/>
								<stop  offset="0.0908" style="stop-color:#9A682B"/>
								<stop  offset="0.1241" style="stop-color:#BA8A43"/>
								<stop  offset="0.1642" style="stop-color:#E8BA65"/>
								<stop  offset="0.3176" style="stop-color:#F8E889"/>
								<stop  offset="0.7204" style="stop-color:#E6B964"/>
								<stop  offset="1" style="stop-color:#603913"/>
							</linearGradient>
							<path class="st0" d="M99.067,1.997c1.86-1.581,5.41-1.331,8.044-0.469c5.416,1.772,10.398,4.775,15.765,6.698
								c2.141,0.768,4.498,1.168,6.571-0.002c1.429-0.807,2.667-2.272,2.706-3.98c0.038-1.63-1.103-2.873-2.534-3.477
								c-1.912-0.806-3.91-0.344-5.747,0.439c-2.58,1.102-5.055,2.499-7.551,3.772c-1.257,0.643-2.514,1.284-3.77,1.925
								c-1.428,0.729-3.015,1.838-4.583,2.206c-1.183,0.277-3.297-0.188-2.326-1.996c0.527-0.982,1.623-1.255,2.676-0.99
								c1.507,0.38,2.888,1.397,4.232,2.138c2.449,1.351,4.922,2.661,7.491,3.766c4.813,2.069,10.081,3.389,15.274,2.035
								c3.978-1.036,8.137-4.029,7.793-8.627c-0.297-3.935-5.133-6.989-8.225-3.669c-2.609,2.802,0.798,7.229,4.004,5.822
								c0.48-0.212-1.794,0.93-3.694-1.47c-1.009-1.274-0.77-2.923,0.327-3.993c2.126-2.072,5.266-0.808,6.36,1.661
								c1.114,2.518-0.188,5.411-2.193,7.059c-1.972,1.625-4.57,2.299-7.079,2.393c-5.417,0.205-10.479-1.725-15.263-4.063
								c-2.259-1.104-4.503-2.263-6.831-3.213c-1.474-0.602-3.393-1.102-4.784-0.031c-0.938,0.722-1.451,2.081-0.657,3.101
								c0.944,1.214,2.644,0.996,3.887,0.463c4.835-2.067,9.445-4.824,14.142-7.193c2.151-1.085,5.105-2.244,7.216-0.427
								c2.678,2.306-0.229,5.672-2.986,5.811c-2.722,0.136-5.249-1.141-7.682-2.179c-2.419-1.033-4.833-2.08-7.257-3.101
								c-4.148-1.747-9.241-3.845-13.443-1.021c-2.728,1.834-3.564,5.474-0.561,8.159C98.628,9.753,94.412,5.952,99.067,1.997z"/>
						</g>
						<g>
							<linearGradient id="SVGID_2_" gradientUnits="userSpaceOnUse" x1="-54.9248" y1="216.1812" x2="116.8802" y2="-58.0461">
								<stop  offset="0" style="stop-color:#281809"/>
								<stop  offset="2.459393e-004" style="stop-color:#2E1B0B"/>
								<stop  offset="0.0015" style="stop-color:#492B13"/>
								<stop  offset="0.003" style="stop-color:#5F3719"/>
								<stop  offset="0.0047" style="stop-color:#70411E"/>
								<stop  offset="0.0069" style="stop-color:#7B4821"/>
								<stop  offset="0.0099" style="stop-color:#824C23"/>
								<stop  offset="0.0182" style="stop-color:#844D24"/>
								<stop  offset="0.0364" style="stop-color:#F7E68A"/>
								<stop  offset="0.0727" style="stop-color:#8E5B22"/>
								<stop  offset="0.0908" style="stop-color:#9A682B"/>
								<stop  offset="0.1241" style="stop-color:#BA8A43"/>
								<stop  offset="0.1642" style="stop-color:#E8BA65"/>
								<stop  offset="0.3176" style="stop-color:#F8E889"/>
								<stop  offset="0.7204" style="stop-color:#E6B964"/>
								<stop  offset="1" style="stop-color:#603913"/>
							</linearGradient>
							<path class="st1" d="M97.711,1.997c-1.86-1.581-5.41-1.331-8.043-0.469c-5.417,1.772-10.399,4.775-15.765,6.698
								c-2.141,0.768-4.499,1.168-6.571-0.002c-1.429-0.807-2.669-2.272-2.708-3.98c-0.037-1.63,1.104-2.873,2.535-3.477
								c1.911-0.806,3.909-0.344,5.748,0.439c2.579,1.102,5.054,2.499,7.55,3.772c1.257,0.643,2.513,1.284,3.77,1.925
								c1.427,0.729,3.014,1.838,4.583,2.206c1.182,0.277,3.297-0.188,2.326-1.996c-0.526-0.982-1.623-1.255-2.676-0.99
								c-1.508,0.38-2.888,1.397-4.233,2.138c-2.448,1.351-4.921,2.661-7.492,3.766c-4.813,2.069-10.079,3.389-15.272,2.035
								c-3.981-1.036-8.139-4.029-7.793-8.627c0.295-3.935,5.132-6.989,8.223-3.669c2.61,2.802-0.798,7.229-4.004,5.822
								c-0.48-0.212,1.795,0.93,3.695-1.47c1.009-1.274,0.769-2.923-0.329-3.993c-2.124-2.072-5.264-0.808-6.357,1.661
								c-1.116,2.518,0.188,5.411,2.192,7.059c1.973,1.625,4.571,2.299,7.08,2.393c5.417,0.205,10.478-1.725,15.264-4.063
								c2.258-1.104,4.501-2.263,6.829-3.213c1.475-0.602,3.394-1.102,4.785-0.031c0.937,0.722,1.451,2.081,0.657,3.101
								c-0.945,1.214-2.645,0.996-3.887,0.463c-4.836-2.067-9.446-4.824-14.142-7.193c-2.152-1.085-5.106-2.244-7.217-0.427
								c-2.679,2.306,0.229,5.672,2.987,5.811c2.721,0.136,5.248-1.141,7.681-2.179c2.419-1.033,4.833-2.08,7.258-3.101
								c4.147-1.747,9.241-3.845,13.443-1.021c2.728,1.834,3.564,5.474,0.562,8.159C98.15,9.753,102.366,5.952,97.711,1.997z"/>
						</g>
					</g>
				</g>
			</g>
			<linearGradient id="SVGID_3_" gradientUnits="userSpaceOnUse" x1="10.9722" y1="257.4595" x2="182.7728" y2="-16.7606">
				<stop  offset="0" style="stop-color:#281809"/>
				<stop  offset="2.459393e-004" style="stop-color:#2E1B0B"/>
				<stop  offset="0.0015" style="stop-color:#492B13"/>
				<stop  offset="0.003" style="stop-color:#5F3719"/>
				<stop  offset="0.0047" style="stop-color:#70411E"/>
				<stop  offset="0.0069" style="stop-color:#7B4821"/>
				<stop  offset="0.0099" style="stop-color:#824C23"/>
				<stop  offset="0.0182" style="stop-color:#844D24"/>
				<stop  offset="0.0364" style="stop-color:#F7E68A"/>
				<stop  offset="0.0727" style="stop-color:#8E5B22"/>
				<stop  offset="0.0908" style="stop-color:#9A682B"/>
				<stop  offset="0.1241" style="stop-color:#BA8A43"/>
				<stop  offset="0.1642" style="stop-color:#E8BA65"/>
				<stop  offset="0.3176" style="stop-color:#F8E889"/>
				<stop  offset="0.7204" style="stop-color:#E6B964"/>
				<stop  offset="1" style="stop-color:#603913"/>
			</linearGradient>
			<polygon class="st2" points="131.22,13.773 195.778,14.235 131.218,14.599 			"/>
			<linearGradient id="SVGID_4_" gradientUnits="userSpaceOnUse" x1="-82.3604" y1="198.9985" x2="89.4483" y2="-75.2345">
				<stop  offset="0" style="stop-color:#281809"/>
				<stop  offset="2.459393e-004" style="stop-color:#2E1B0B"/>
				<stop  offset="0.0015" style="stop-color:#492B13"/>
				<stop  offset="0.003" style="stop-color:#5F3719"/>
				<stop  offset="0.0047" style="stop-color:#70411E"/>
				<stop  offset="0.0069" style="stop-color:#7B4821"/>
				<stop  offset="0.0099" style="stop-color:#824C23"/>
				<stop  offset="0.0182" style="stop-color:#844D24"/>
				<stop  offset="0.0364" style="stop-color:#F7E68A"/>
				<stop  offset="0.0727" style="stop-color:#8E5B22"/>
				<stop  offset="0.0908" style="stop-color:#9A682B"/>
				<stop  offset="0.1241" style="stop-color:#BA8A43"/>
				<stop  offset="0.1642" style="stop-color:#E8BA65"/>
				<stop  offset="0.3176" style="stop-color:#F8E889"/>
				<stop  offset="0.7204" style="stop-color:#E6B964"/>
				<stop  offset="1" style="stop-color:#603913"/>
			</linearGradient>
			<polygon class="st3" points="65.56,14.599 1,14.235 65.56,13.773 			"/>
		</g>
	</g>
</g>
</svg>
